<mxfile host="app.diagrams.net" agent="Mozilla/5.0 (Windows NT 10.0; Win64; x64) AppleWebKit/537.36 (KHTML, like Gecko) Chrome/135.0.0.0 Safari/537.36" version="26.2.14">
  <diagram name="페이지-1" id="cRkIwr_GSjDQ7ghFXaII">
    <mxGraphModel dx="1113" dy="662" grid="1" gridSize="10" guides="1" tooltips="1" connect="1" arrows="1" fold="1" page="1" pageScale="1" pageWidth="827" pageHeight="1169" math="0" shadow="0">
      <root>
        <mxCell id="0" />
        <mxCell id="1" parent="0" />
        <mxCell id="HESNNAwmUM3spLMUB6l6-3" value="&lt;font style=&quot;font-size: 20px;&quot;&gt;yes&lt;/font&gt;" style="edgeStyle=orthogonalEdgeStyle;rounded=0;orthogonalLoop=1;jettySize=auto;html=1;exitX=0;exitY=0.5;exitDx=0;exitDy=0;exitPerimeter=0;" edge="1" parent="1" source="HESNNAwmUM3spLMUB6l6-1">
          <mxGeometry relative="1" as="geometry">
            <mxPoint x="100" y="240" as="targetPoint" />
          </mxGeometry>
        </mxCell>
        <mxCell id="HESNNAwmUM3spLMUB6l6-4" value="&lt;font style=&quot;font-size: 21px;&quot;&gt;no&lt;/font&gt;" style="edgeStyle=orthogonalEdgeStyle;rounded=0;orthogonalLoop=1;jettySize=auto;html=1;exitX=1;exitY=0.5;exitDx=0;exitDy=0;exitPerimeter=0;" edge="1" parent="1" source="HESNNAwmUM3spLMUB6l6-1">
          <mxGeometry x="-0.0025" relative="1" as="geometry">
            <mxPoint x="360" y="250" as="targetPoint" />
            <mxPoint as="offset" />
          </mxGeometry>
        </mxCell>
        <mxCell id="HESNNAwmUM3spLMUB6l6-1" value="조건" style="strokeWidth=2;html=1;shape=mxgraph.flowchart.decision;whiteSpace=wrap;" vertex="1" parent="1">
          <mxGeometry x="180" y="80" width="100" height="100" as="geometry" />
        </mxCell>
        <mxCell id="HESNNAwmUM3spLMUB6l6-6" value="if문" style="text;html=1;align=center;verticalAlign=middle;whiteSpace=wrap;rounded=0;" vertex="1" parent="1">
          <mxGeometry x="70" y="50" width="60" height="30" as="geometry" />
        </mxCell>
        <mxCell id="HESNNAwmUM3spLMUB6l6-8" value="&lt;font style=&quot;font-size: 17px;&quot;&gt;Yes&lt;/font&gt;" style="edgeStyle=orthogonalEdgeStyle;rounded=0;orthogonalLoop=1;jettySize=auto;html=1;exitX=0;exitY=0.5;exitDx=0;exitDy=0;" edge="1" parent="1" source="HESNNAwmUM3spLMUB6l6-7">
          <mxGeometry relative="1" as="geometry">
            <mxPoint x="100" y="490" as="targetPoint" />
          </mxGeometry>
        </mxCell>
        <mxCell id="HESNNAwmUM3spLMUB6l6-9" value="&lt;font style=&quot;font-size: 18px;&quot;&gt;No&lt;/font&gt;" style="edgeStyle=orthogonalEdgeStyle;rounded=0;orthogonalLoop=1;jettySize=auto;html=1;exitX=1;exitY=0.5;exitDx=0;exitDy=0;entryX=0.5;entryY=0;entryDx=0;entryDy=0;" edge="1" parent="1" source="HESNNAwmUM3spLMUB6l6-7" target="HESNNAwmUM3spLMUB6l6-10">
          <mxGeometry relative="1" as="geometry">
            <mxPoint x="360" y="470" as="targetPoint" />
          </mxGeometry>
        </mxCell>
        <mxCell id="HESNNAwmUM3spLMUB6l6-7" value="&lt;div&gt;&lt;br&gt;&lt;/div&gt;조건&lt;div&gt;&lt;br&gt;&lt;/div&gt;" style="rhombus;whiteSpace=wrap;html=1;" vertex="1" parent="1">
          <mxGeometry x="180" y="340" width="80" height="80" as="geometry" />
        </mxCell>
        <mxCell id="HESNNAwmUM3spLMUB6l6-11" value="&lt;font style=&quot;font-size: 18px;&quot;&gt;Ye&lt;/font&gt;s" style="edgeStyle=orthogonalEdgeStyle;rounded=0;orthogonalLoop=1;jettySize=auto;html=1;exitX=0;exitY=0.5;exitDx=0;exitDy=0;" edge="1" parent="1" source="HESNNAwmUM3spLMUB6l6-10">
          <mxGeometry relative="1" as="geometry">
            <mxPoint x="230" y="610" as="targetPoint" />
          </mxGeometry>
        </mxCell>
        <mxCell id="HESNNAwmUM3spLMUB6l6-12" value="&lt;font style=&quot;font-size: 17px;&quot;&gt;No&lt;/font&gt;" style="edgeStyle=orthogonalEdgeStyle;rounded=0;orthogonalLoop=1;jettySize=auto;html=1;exitX=1;exitY=0.5;exitDx=0;exitDy=0;" edge="1" parent="1" source="HESNNAwmUM3spLMUB6l6-10">
          <mxGeometry relative="1" as="geometry">
            <mxPoint x="460" y="610" as="targetPoint" />
          </mxGeometry>
        </mxCell>
        <mxCell id="HESNNAwmUM3spLMUB6l6-10" value="조건" style="rhombus;whiteSpace=wrap;html=1;" vertex="1" parent="1">
          <mxGeometry x="300" y="490" width="80" height="80" as="geometry" />
        </mxCell>
        <mxCell id="HESNNAwmUM3spLMUB6l6-13" value="&lt;font style=&quot;font-size: 21px;&quot;&gt;if,else,if(elif)&lt;/font&gt;" style="text;html=1;align=center;verticalAlign=middle;whiteSpace=wrap;rounded=0;" vertex="1" parent="1">
          <mxGeometry x="70" y="310" width="60" height="30" as="geometry" />
        </mxCell>
        <mxCell id="HESNNAwmUM3spLMUB6l6-16" value="&lt;font style=&quot;font-size: 14px;&quot;&gt;case&lt;/font&gt;" style="edgeStyle=orthogonalEdgeStyle;rounded=0;orthogonalLoop=1;jettySize=auto;html=1;exitX=0;exitY=0.5;exitDx=0;exitDy=0;" edge="1" parent="1" source="HESNNAwmUM3spLMUB6l6-15">
          <mxGeometry relative="1" as="geometry">
            <mxPoint x="140" y="810" as="targetPoint" />
          </mxGeometry>
        </mxCell>
        <mxCell id="HESNNAwmUM3spLMUB6l6-17" value="&lt;font style=&quot;font-size: 14px;&quot;&gt;case&lt;/font&gt;" style="edgeStyle=orthogonalEdgeStyle;rounded=0;orthogonalLoop=1;jettySize=auto;html=1;exitX=0;exitY=1;exitDx=0;exitDy=0;" edge="1" parent="1" source="HESNNAwmUM3spLMUB6l6-15">
          <mxGeometry relative="1" as="geometry">
            <mxPoint x="190" y="790" as="targetPoint" />
          </mxGeometry>
        </mxCell>
        <mxCell id="HESNNAwmUM3spLMUB6l6-18" value="&lt;font style=&quot;font-size: 16px;&quot;&gt;case&lt;/font&gt;" style="edgeStyle=orthogonalEdgeStyle;rounded=0;orthogonalLoop=1;jettySize=auto;html=1;exitX=0.5;exitY=1;exitDx=0;exitDy=0;" edge="1" parent="1" source="HESNNAwmUM3spLMUB6l6-15">
          <mxGeometry relative="1" as="geometry">
            <mxPoint x="240" y="820" as="targetPoint" />
          </mxGeometry>
        </mxCell>
        <mxCell id="HESNNAwmUM3spLMUB6l6-19" style="edgeStyle=orthogonalEdgeStyle;rounded=0;orthogonalLoop=1;jettySize=auto;html=1;exitX=1;exitY=1;exitDx=0;exitDy=0;" edge="1" parent="1" source="HESNNAwmUM3spLMUB6l6-15">
          <mxGeometry relative="1" as="geometry">
            <mxPoint x="280" y="800" as="targetPoint" />
          </mxGeometry>
        </mxCell>
        <mxCell id="HESNNAwmUM3spLMUB6l6-22" value="&lt;font style=&quot;font-size: 14px;&quot;&gt;case&lt;/font&gt;" style="edgeLabel;html=1;align=center;verticalAlign=middle;resizable=0;points=[];" vertex="1" connectable="0" parent="HESNNAwmUM3spLMUB6l6-19">
          <mxGeometry x="0.16" relative="1" as="geometry">
            <mxPoint as="offset" />
          </mxGeometry>
        </mxCell>
        <mxCell id="HESNNAwmUM3spLMUB6l6-20" value="" style="edgeStyle=orthogonalEdgeStyle;rounded=0;orthogonalLoop=1;jettySize=auto;html=1;exitX=1;exitY=0.5;exitDx=0;exitDy=0;" edge="1" parent="1" source="HESNNAwmUM3spLMUB6l6-15">
          <mxGeometry x="0.003" relative="1" as="geometry">
            <mxPoint x="370" y="800" as="targetPoint" />
            <mxPoint as="offset" />
          </mxGeometry>
        </mxCell>
        <mxCell id="HESNNAwmUM3spLMUB6l6-23" value="&lt;font style=&quot;font-size: 14px;&quot;&gt;case&lt;/font&gt;" style="edgeLabel;html=1;align=center;verticalAlign=middle;resizable=0;points=[];" vertex="1" connectable="0" parent="HESNNAwmUM3spLMUB6l6-20">
          <mxGeometry x="0.7008" y="2" relative="1" as="geometry">
            <mxPoint as="offset" />
          </mxGeometry>
        </mxCell>
        <mxCell id="HESNNAwmUM3spLMUB6l6-24" style="edgeStyle=orthogonalEdgeStyle;rounded=0;orthogonalLoop=1;jettySize=auto;html=1;exitX=1;exitY=0.5;exitDx=0;exitDy=0;" edge="1" parent="1" source="HESNNAwmUM3spLMUB6l6-15">
          <mxGeometry relative="1" as="geometry">
            <mxPoint x="430" y="800" as="targetPoint" />
            <Array as="points">
              <mxPoint x="431" y="750" />
              <mxPoint x="431" y="800" />
            </Array>
          </mxGeometry>
        </mxCell>
        <mxCell id="HESNNAwmUM3spLMUB6l6-25" value="&lt;font style=&quot;font-size: 15px;&quot;&gt;default&lt;/font&gt;" style="edgeLabel;html=1;align=center;verticalAlign=middle;resizable=0;points=[];" vertex="1" connectable="0" parent="HESNNAwmUM3spLMUB6l6-24">
          <mxGeometry x="0.8009" y="-4" relative="1" as="geometry">
            <mxPoint as="offset" />
          </mxGeometry>
        </mxCell>
        <mxCell id="HESNNAwmUM3spLMUB6l6-15" value="조건" style="rhombus;whiteSpace=wrap;html=1;" vertex="1" parent="1">
          <mxGeometry x="200" y="710" width="80" height="80" as="geometry" />
        </mxCell>
        <mxCell id="HESNNAwmUM3spLMUB6l6-28" value="switch" style="text;html=1;align=center;verticalAlign=middle;whiteSpace=wrap;rounded=0;" vertex="1" parent="1">
          <mxGeometry x="50" y="650" width="60" height="30" as="geometry" />
        </mxCell>
        <mxCell id="HESNNAwmUM3spLMUB6l6-31" value="&lt;font style=&quot;font-size: 17px;&quot;&gt;No&lt;/font&gt;" style="edgeStyle=orthogonalEdgeStyle;rounded=0;orthogonalLoop=1;jettySize=auto;html=1;" edge="1" parent="1" source="HESNNAwmUM3spLMUB6l6-34">
          <mxGeometry relative="1" as="geometry">
            <mxPoint x="280" y="1190" as="targetPoint" />
          </mxGeometry>
        </mxCell>
        <mxCell id="HESNNAwmUM3spLMUB6l6-29" value="조건/범위" style="rhombus;whiteSpace=wrap;html=1;" vertex="1" parent="1">
          <mxGeometry x="130" y="1100" width="80" height="80" as="geometry" />
        </mxCell>
        <mxCell id="HESNNAwmUM3spLMUB6l6-30" value="&lt;font style=&quot;font-size: 21px;&quot;&gt;반복문&lt;/font&gt;" style="text;html=1;align=center;verticalAlign=middle;whiteSpace=wrap;rounded=0;" vertex="1" parent="1">
          <mxGeometry x="40" y="1010" width="60" height="30" as="geometry" />
        </mxCell>
        <mxCell id="HESNNAwmUM3spLMUB6l6-36" style="edgeStyle=orthogonalEdgeStyle;rounded=0;orthogonalLoop=1;jettySize=auto;html=1;exitX=0.5;exitY=1;exitDx=0;exitDy=0;entryX=0;entryY=0.5;entryDx=0;entryDy=0;" edge="1" parent="1" source="HESNNAwmUM3spLMUB6l6-32" target="HESNNAwmUM3spLMUB6l6-29">
          <mxGeometry relative="1" as="geometry">
            <Array as="points">
              <mxPoint x="170" y="1300" />
              <mxPoint x="90" y="1300" />
              <mxPoint x="90" y="1140" />
            </Array>
          </mxGeometry>
        </mxCell>
        <mxCell id="HESNNAwmUM3spLMUB6l6-32" value="" style="rounded=0;whiteSpace=wrap;html=1;" vertex="1" parent="1">
          <mxGeometry x="110" y="1220" width="120" height="60" as="geometry" />
        </mxCell>
        <mxCell id="HESNNAwmUM3spLMUB6l6-33" value="&lt;font style=&quot;font-size: 15px;&quot;&gt;yes&lt;/font&gt;" style="edgeStyle=orthogonalEdgeStyle;rounded=0;orthogonalLoop=1;jettySize=auto;html=1;exitX=0.5;exitY=1;exitDx=0;exitDy=0;entryX=0.5;entryY=0;entryDx=0;entryDy=0;" edge="1" parent="1" source="HESNNAwmUM3spLMUB6l6-29" target="HESNNAwmUM3spLMUB6l6-32">
          <mxGeometry relative="1" as="geometry">
            <mxPoint x="180" y="1280" as="targetPoint" />
          </mxGeometry>
        </mxCell>
        <mxCell id="HESNNAwmUM3spLMUB6l6-35" value="" style="edgeStyle=orthogonalEdgeStyle;rounded=0;orthogonalLoop=1;jettySize=auto;html=1;" edge="1" parent="1" source="HESNNAwmUM3spLMUB6l6-29" target="HESNNAwmUM3spLMUB6l6-34">
          <mxGeometry relative="1" as="geometry">
            <mxPoint x="280" y="1190" as="targetPoint" />
            <mxPoint x="210" y="1140" as="sourcePoint" />
          </mxGeometry>
        </mxCell>
        <mxCell id="HESNNAwmUM3spLMUB6l6-34" value="횟수 반복" style="text;html=1;align=center;verticalAlign=middle;whiteSpace=wrap;rounded=0;" vertex="1" parent="1">
          <mxGeometry x="260" y="1210" width="60" height="30" as="geometry" />
        </mxCell>
        <mxCell id="HESNNAwmUM3spLMUB6l6-38" value="횟수 반복" style="text;html=1;align=center;verticalAlign=middle;whiteSpace=wrap;rounded=0;" vertex="1" parent="1">
          <mxGeometry x="270" y="1260" width="60" height="30" as="geometry" />
        </mxCell>
      </root>
    </mxGraphModel>
  </diagram>
</mxfile>
